<svg xmlns="http://www.w3.org/2000/svg" width="21" height="21" viewBox="0 0 21 21" fill="currentColor" stroke="currentColor" stroke-width="0.1" stroke-linecap="round" stroke-linejoin="round"><path d="M17.5703 11.3828H3.46875C3.28646 11.3828 3.10417 11.3568 2.92188 11.3047C2.76562 11.2526 2.6224 11.1745 2.49219 11.0703C2.38802 10.9661 2.29688 10.849 2.21875 10.7188C2.14062 10.5885 2.10156 10.4323 2.10156 10.25C2.10156 10.1198 2.1276 9.98958 2.17969 9.85938C2.23177 9.70312 2.29688 9.57292 2.375 9.46875C2.45312 9.36458 2.54427 9.28646 2.64844 9.23438C2.77865 9.15625 2.90885 9.09115 3.03906 9.03906C3.0651 8.1276 3.27344 7.29427 3.66406 6.53906C4.05469 5.75781 4.57552 5.08073 5.22656 4.50781C5.85156 3.96094 6.59375 3.53125 7.45312 3.21875C8.33854 2.88021 9.28906 2.71094 10.3047 2.71094H10.5391C11.5286 2.71094 12.4661 2.88021 13.3516 3.21875C14.237 3.55729 15.0052 4.01302 15.6562 4.58594C16.3073 5.15885 16.8281 5.83594 17.2188 6.61719C17.6354 7.39844 17.8568 8.24479 17.8828 9.15625C18.0391 9.18229 18.1693 9.23438 18.2734 9.3125C18.4036 9.36458 18.5208 9.44271 18.625 9.54688C18.7031 9.625 18.7682 9.72917 18.8203 9.85938C18.8724 9.98958 18.8984 10.1198 18.8984 10.25C18.8984 10.4323 18.8594 10.5885 18.7812 10.7188C18.7292 10.849 18.638 10.9661 18.5078 11.0703C18.4036 11.1745 18.2734 11.2526 18.1172 11.3047C17.9609 11.3568 17.7786 11.3828 17.5703 11.3828ZM10.3047 3.375C9.36719 3.375 8.49479 3.53125 7.6875 3.84375C6.88021 4.15625 6.17708 4.57292 5.57812 5.09375C5.00521 5.61458 4.54948 6.23958 4.21094 6.96875C3.8724 7.69792 3.70312 8.49219 3.70312 9.35156C3.70312 9.42969 3.66406 9.50781 3.58594 9.58594C3.53385 9.63802 3.45573 9.66406 3.35156 9.66406C3.19531 9.66406 3.0651 9.72917 2.96094 9.85938C2.85677 9.96354 2.80469 10.0938 2.80469 10.25C2.80469 10.4844 2.89583 10.6276 3.07812 10.6797C3.28646 10.7057 3.41667 10.7188 3.46875 10.7188H17.5703C17.7005 10.7188 17.8307 10.6927 17.9609 10.6406C18.1172 10.5885 18.1953 10.4583 18.1953 10.25C18.1953 10.0417 18.1172 9.91146 17.9609 9.85938C17.8307 9.80729 17.7005 9.78125 17.5703 9.78125C17.4922 9.78125 17.4141 9.75521 17.3359 9.70312C17.2839 9.625 17.2578 9.54688 17.2578 9.46875C17.2578 8.60938 17.0755 7.8151 16.7109 7.08594C16.3724 6.33073 15.9036 5.67969 15.3047 5.13281C14.7057 4.58594 13.9896 4.15625 13.1562 3.84375C12.349 3.53125 11.4766 3.375 10.5391 3.375H10.3047ZM14.9141 9.85938C14.8099 9.85938 14.7188 9.83333 14.6406 9.78125C14.5885 9.70312 14.5625 9.625 14.5625 9.54688C14.5625 9.07812 14.5104 8.63542 14.4062 8.21875C14.3281 7.77604 14.2109 7.38542 14.0547 7.04688C13.8724 6.68229 13.6641 6.36979 13.4297 6.10938C13.1953 5.84896 12.9219 5.64062 12.6094 5.48438C12.5312 5.45833 12.4792 5.40625 12.4531 5.32812C12.4271 5.22396 12.4271 5.13281 12.4531 5.05469C12.5052 4.97656 12.5703 4.92448 12.6484 4.89844C12.7526 4.84635 12.8438 4.84635 12.9219 4.89844C13.2865 5.08073 13.612 5.32812 13.8984 5.64062C14.1849 5.95312 14.4193 6.30469 14.6016 6.69531C14.8099 7.08594 14.9661 7.52865 15.0703 8.02344C15.1745 8.49219 15.2266 9 15.2266 9.54688C15.2266 9.625 15.1875 9.70312 15.1094 9.78125C15.0573 9.83333 14.9922 9.85938 14.9141 9.85938ZM10.4219 3.0625C10.2396 3.0625 10.0703 3.03646 9.91406 2.98438C9.75781 2.90625 9.61458 2.80208 9.48438 2.67188C9.38021 2.56771 9.28906 2.4375 9.21094 2.28125C9.13281 2.09896 9.09375 1.91667 9.09375 1.73438C9.09375 1.57812 9.13281 1.42188 9.21094 1.26562C9.28906 1.08333 9.38021 0.940104 9.48438 0.835938C9.61458 0.705729 9.75781 0.614583 9.91406 0.5625C10.0703 0.484375 10.2396 0.445312 10.4219 0.445312C10.6042 0.445312 10.7734 0.484375 10.9297 0.5625C11.0859 0.614583 11.2161 0.705729 11.3203 0.835938C11.4505 0.940104 11.5417 1.08333 11.5938 1.26562C11.6719 1.42188 11.7109 1.57812 11.7109 1.73438C11.7109 1.91667 11.6719 2.09896 11.5938 2.28125C11.5417 2.4375 11.4505 2.56771 11.3203 2.67188C11.2161 2.80208 11.0859 2.90625 10.9297 2.98438C10.7734 3.03646 10.6042 3.0625 10.4219 3.0625ZM10.4219 1.10938C10.2396 1.10938 10.0833 1.17448 9.95312 1.30469C9.82292 1.4349 9.75781 1.57812 9.75781 1.73438C9.75781 1.91667 9.82292 2.07292 9.95312 2.20312C10.0833 2.33333 10.2396 2.39844 10.4219 2.39844C10.5781 2.39844 10.7214 2.33333 10.8516 2.20312C10.9818 2.07292 11.0469 1.91667 11.0469 1.73438C11.0469 1.57812 10.9818 1.4349 10.8516 1.30469C10.7214 1.17448 10.5781 1.10938 10.4219 1.10938ZM15.5781 20.0547H5.96875C5.89062 20.0547 5.8125 20.0286 5.73438 19.9766C5.68229 19.9245 5.64323 19.8594 5.61719 19.7812L3.625 11.3828C3.59896 11.2786 3.59896 11.1875 3.625 11.1094C3.67708 11.0312 3.75521 10.9792 3.85938 10.9531C3.9375 10.9271 4.01562 10.9401 4.09375 10.9922C4.17188 11.0443 4.22396 11.1224 4.25 11.2266L6.20312 19.3906H15.3438L17.2969 11.1094C17.3229 11.0052 17.375 10.9271 17.4531 10.875C17.5312 10.8229 17.6094 10.8099 17.6875 10.8359C17.7917 10.862 17.8568 10.9141 17.8828 10.9922C17.9349 11.0703 17.9479 11.1615 17.9219 11.2656L15.9297 19.7812C15.9036 19.8594 15.8516 19.9245 15.7734 19.9766C15.7214 20.0286 15.6562 20.0547 15.5781 20.0547ZM7.57031 17.0469C7.49219 17.0469 7.41406 17.0208 7.33594 16.9688C7.28385 16.8906 7.25781 16.8125 7.25781 16.7344V14.0391C7.25781 13.9609 7.28385 13.8958 7.33594 13.8438C7.41406 13.7656 7.49219 13.7266 7.57031 13.7266C7.67448 13.7266 7.7526 13.7656 7.80469 13.8438C7.88281 13.8958 7.92188 13.9609 7.92188 14.0391V16.7344C7.92188 16.8125 7.88281 16.8906 7.80469 16.9688C7.7526 17.0208 7.67448 17.0469 7.57031 17.0469ZM10.2266 17.0469C10.1484 17.0469 10.0703 17.0208 9.99219 16.9688C9.9401 16.8906 9.91406 16.8125 9.91406 16.7344V14.0391C9.91406 13.9609 9.9401 13.8958 9.99219 13.8438C10.0703 13.7656 10.1484 13.7266 10.2266 13.7266C10.3307 13.7266 10.4089 13.7656 10.4609 13.8438C10.5391 13.8958 10.5781 13.9609 10.5781 14.0391V16.7344C10.5781 16.8125 10.5391 16.8906 10.4609 16.9688C10.4089 17.0208 10.3307 17.0469 10.2266 17.0469ZM12.9219 17.0469C12.8177 17.0469 12.7266 17.0208 12.6484 16.9688C12.5964 16.8906 12.5703 16.8125 12.5703 16.7344V14.0391C12.5703 13.9609 12.5964 13.8958 12.6484 13.8438C12.7266 13.7656 12.8177 13.7266 12.9219 13.7266C13 13.7266 13.0651 13.7656 13.1172 13.8438C13.1953 13.8958 13.2344 13.9609 13.2344 14.0391V16.7344C13.2344 16.8125 13.1953 16.8906 13.1172 16.9688C13.0651 17.0208 13 17.0469 12.9219 17.0469Z"></path></svg>