<svg xmlns="http://www.w3.org/2000/svg" width="21" height="21" viewBox="0 0 21 21" fill="currentColor" stroke="currentColor" stroke-width="0.1" stroke-linecap="round" stroke-linejoin="round"><path d="M15.5781 20.25H6.24219C6.16406 20.25 6.08594 20.2109 6.00781 20.1328C5.95573 20.0807 5.92969 20.0156 5.92969 19.9375V7.28125C5.92969 7.17708 5.95573 7.09896 6.00781 7.04688C6.08594 6.96875 6.16406 6.92969 6.24219 6.92969H15.5781C15.6823 6.92969 15.7604 6.96875 15.8125 7.04688C15.8906 7.09896 15.9297 7.17708 15.9297 7.28125V19.9375C15.9297 20.0156 15.8906 20.0807 15.8125 20.1328C15.7604 20.2109 15.6823 20.25 15.5781 20.25ZM6.59375 19.5859H15.2656V7.59375H6.59375V19.5859ZM16.9062 16.9297H15.5781C15.5 16.9297 15.4219 16.9036 15.3438 16.8516C15.2917 16.7734 15.2656 16.6823 15.2656 16.5781V9.9375C15.2656 9.83333 15.2917 9.75521 15.3438 9.70312C15.4219 9.625 15.5 9.58594 15.5781 9.58594H16.9062C17.1406 9.58594 17.362 9.625 17.5703 9.70312C17.7786 9.78125 17.9609 9.88542 18.1172 10.0156C18.2474 10.1198 18.3516 10.263 18.4297 10.4453C18.5339 10.6276 18.5859 10.8229 18.5859 11.0312V15.1719C18.5859 15.4062 18.5339 15.6276 18.4297 15.8359C18.3516 16.0443 18.2344 16.2266 18.0781 16.3828C17.9219 16.5391 17.7396 16.6693 17.5312 16.7734C17.3229 16.8776 17.1146 16.9297 16.9062 16.9297ZM15.9297 16.2656H16.9062C17.0365 16.2656 17.1536 16.2396 17.2578 16.1875C17.388 16.1094 17.5052 16.0182 17.6094 15.9141C17.6875 15.8099 17.7526 15.6927 17.8047 15.5625C17.8828 15.4323 17.9219 15.3021 17.9219 15.1719V11.0312C17.9219 10.901 17.8828 10.7969 17.8047 10.7188C17.7526 10.6146 17.6875 10.5234 17.6094 10.4453C17.5052 10.3932 17.388 10.3542 17.2578 10.3281C17.1536 10.276 17.0365 10.25 16.9062 10.25H15.9297V16.2656ZM8.89844 17.2812C8.82031 17.2812 8.74219 17.2552 8.66406 17.2031C8.61198 17.125 8.58594 17.0339 8.58594 16.9297V9.58594C8.58594 9.50781 8.61198 9.44271 8.66406 9.39062C8.74219 9.3125 8.82031 9.27344 8.89844 9.27344C9.0026 9.27344 9.08073 9.3125 9.13281 9.39062C9.21094 9.44271 9.25 9.50781 9.25 9.58594V16.9297C9.25 17.0339 9.21094 17.125 9.13281 17.2031C9.08073 17.2552 9.0026 17.2812 8.89844 17.2812ZM12.9219 17.2812C12.8177 17.2812 12.7266 17.2552 12.6484 17.2031C12.5964 17.125 12.5703 17.0339 12.5703 16.9297V9.58594C12.5703 9.50781 12.5964 9.44271 12.6484 9.39062C12.7266 9.3125 12.8177 9.27344 12.9219 9.27344C13 9.27344 13.0651 9.3125 13.1172 9.39062C13.1953 9.44271 13.2344 9.50781 13.2344 9.58594V16.9297C13.2344 17.0339 13.1953 17.125 13.1172 17.2031C13.0651 17.2552 13 17.2812 12.9219 17.2812ZM4.28906 15.5234C4.02865 15.5234 3.78125 15.4714 3.54688 15.3672C3.3125 15.263 3.11719 15.1198 2.96094 14.9375C2.77865 14.7552 2.63542 14.5469 2.53125 14.3125C2.45312 14.0521 2.41406 13.7917 2.41406 13.5312C2.41406 13.375 2.42708 13.2318 2.45312 13.1016C2.50521 12.9453 2.55729 12.8021 2.60938 12.6719C2.55729 12.5417 2.50521 12.4115 2.45312 12.2812C2.42708 12.151 2.41406 12.0078 2.41406 11.8516C2.41406 11.6953 2.53125 11.4479 2.76562 11.1094C3.02604 10.7708 3.32552 10.4844 3.66406 10.25C3.82031 10.1458 3.95052 10.0417 4.05469 9.9375C4.15885 9.80729 4.25 9.66406 4.32812 9.50781C4.40625 9.3776 4.47135 9.23438 4.52344 9.07812C4.57552 8.92188 4.60156 8.76562 4.60156 8.60938V7.59375C4.44531 7.48958 4.3151 7.3724 4.21094 7.24219C4.10677 7.08594 4.01562 6.91667 3.9375 6.73438C3.85938 6.57812 3.79427 6.40885 3.74219 6.22656C3.71615 6.01823 3.70312 5.8099 3.70312 5.60156C3.70312 5.34115 3.71615 5.11979 3.74219 4.9375C3.79427 4.72917 3.8724 4.53385 3.97656 4.35156C3.92448 4.2474 3.8724 4.14323 3.82031 4.03906C3.79427 3.9349 3.76823 3.83073 3.74219 3.72656C3.71615 3.6224 3.6901 3.51823 3.66406 3.41406C3.66406 3.3099 3.66406 3.20573 3.66406 3.10156C3.66406 2.71094 3.72917 2.34635 3.85938 2.00781C4.01562 1.64323 4.22396 1.33073 4.48438 1.07031C4.74479 0.835938 5.04427 0.640625 5.38281 0.484375C5.7474 0.328125 6.125 0.25 6.51562 0.25C6.69792 0.25 6.88021 0.276042 7.0625 0.328125C7.27083 0.354167 7.46615 0.419271 7.64844 0.523438C7.83073 0.445312 8.01302 0.380208 8.19531 0.328125C8.40365 0.276042 8.61198 0.25 8.82031 0.25C9.02865 0.25 9.23698 0.263021 9.44531 0.289062C9.65365 0.315104 9.875 0.367188 10.1094 0.445312C10.1354 0.445312 10.1484 0.458333 10.1484 0.484375C10.1745 0.484375 10.2005 0.484375 10.2266 0.484375C10.3828 0.536458 10.526 0.601562 10.6562 0.679688C10.8125 0.731771 10.9557 0.809896 11.0859 0.914062C11.2422 0.809896 11.3984 0.71875 11.5547 0.640625C11.7109 0.536458 11.8802 0.458333 12.0625 0.40625C12.2448 0.354167 12.4271 0.315104 12.6094 0.289062C12.7917 0.263021 12.974 0.25 13.1562 0.25C13.5729 0.25 13.9635 0.315104 14.3281 0.445312C14.7188 0.575521 15.0703 0.757812 15.3828 0.992188C15.6953 1.22656 15.9557 1.51302 16.1641 1.85156C16.3984 2.16406 16.5677 2.52865 16.6719 2.94531C16.9323 3.04948 17.1667 3.19271 17.375 3.375C17.6094 3.53125 17.8047 3.72656 17.9609 3.96094C18.1172 4.16927 18.2344 4.41667 18.3125 4.70312C18.3906 4.96354 18.4297 5.23698 18.4297 5.52344C18.4297 5.91406 18.3516 6.27865 18.1953 6.61719C18.0651 6.95573 17.8568 7.24219 17.5703 7.47656C17.3099 7.73698 16.9974 7.94531 16.6328 8.10156C16.2943 8.23177 15.9297 8.29688 15.5391 8.29688C15.4609 8.29688 15.3828 8.27083 15.3047 8.21875C15.2526 8.14062 15.2266 8.04948 15.2266 7.94531C15.2266 7.86719 15.2526 7.80208 15.3047 7.75C15.3828 7.67188 15.4609 7.63281 15.5391 7.63281C15.8516 7.63281 16.138 7.58073 16.3984 7.47656C16.6849 7.34635 16.9193 7.1901 17.1016 7.00781C17.3099 6.82552 17.4661 6.60417 17.5703 6.34375C17.7005 6.08333 17.7656 5.8099 17.7656 5.52344C17.7656 5.28906 17.7266 5.06771 17.6484 4.85938C17.5964 4.65104 17.5052 4.45573 17.375 4.27344C17.2448 4.09115 17.0885 3.9349 16.9062 3.80469C16.724 3.67448 16.5156 3.57031 16.2812 3.49219C16.2292 3.49219 16.1771 3.46615 16.125 3.41406C16.099 3.36198 16.0729 3.3099 16.0469 3.25781C15.9948 2.91927 15.8776 2.60677 15.6953 2.32031C15.513 2.03385 15.2917 1.78646 15.0312 1.57812C14.7708 1.36979 14.4714 1.21354 14.1328 1.10938C13.8203 0.979167 13.4948 0.914062 13.1562 0.914062C12.974 0.914062 12.8047 0.927083 12.6484 0.953125C12.4922 0.979167 12.3359 1.01823 12.1797 1.07031C12.0234 1.1224 11.8672 1.20052 11.7109 1.30469C11.5547 1.38281 11.4115 1.47396 11.2812 1.57812C11.2292 1.63021 11.1641 1.65625 11.0859 1.65625C11.0078 1.65625 10.9297 1.63021 10.8516 1.57812C10.7214 1.47396 10.5781 1.38281 10.4219 1.30469C10.2917 1.22656 10.1484 1.16146 9.99219 1.10938C9.99219 1.10938 9.97917 1.10938 9.95312 1.10938C9.92708 1.08333 9.91406 1.07031 9.91406 1.07031C9.70573 1.01823 9.4974 0.979167 9.28906 0.953125C9.10677 0.927083 8.9375 0.914062 8.78125 0.914062C8.59896 0.940104 8.42969 0.979167 8.27344 1.03125C8.11719 1.05729 7.94792 1.10938 7.76562 1.1875C7.73958 1.21354 7.70052 1.22656 7.64844 1.22656C7.59635 1.22656 7.54427 1.21354 7.49219 1.1875C7.33594 1.08333 7.16667 1.01823 6.98438 0.992188C6.82812 0.940104 6.67188 0.914062 6.51562 0.914062C6.20312 0.914062 5.91667 0.979167 5.65625 1.10938C5.39583 1.21354 5.16146 1.35677 4.95312 1.53906C4.77083 1.7474 4.61458 1.98177 4.48438 2.24219C4.38021 2.5026 4.32812 2.78906 4.32812 3.10156C4.32812 3.28385 4.35417 3.46615 4.40625 3.64844C4.45833 3.83073 4.53646 4 4.64062 4.15625C4.66667 4.20833 4.67969 4.27344 4.67969 4.35156C4.67969 4.40365 4.66667 4.45573 4.64062 4.50781C4.53646 4.66406 4.45833 4.83333 4.40625 5.01562C4.38021 5.17188 4.36719 5.36719 4.36719 5.60156C4.36719 5.78385 4.38021 5.95312 4.40625 6.10938C4.43229 6.26562 4.48438 6.40885 4.5625 6.53906C4.61458 6.66927 4.67969 6.78646 4.75781 6.89062C4.86198 6.99479 4.97917 7.08594 5.10938 7.16406C5.16146 7.1901 5.20052 7.22917 5.22656 7.28125C5.2526 7.33333 5.26562 7.38542 5.26562 7.4375V8.60938C5.26562 8.81771 5.22656 9.02604 5.14844 9.23438C5.09635 9.44271 5.01823 9.63802 4.91406 9.82031C4.8099 10.0026 4.67969 10.1849 4.52344 10.3672C4.39323 10.5234 4.23698 10.6667 4.05469 10.7969C3.76823 10.9792 3.53385 11.2005 3.35156 11.4609C3.19531 11.6953 3.10417 11.8385 3.07812 11.8906C3.10417 11.9948 3.13021 12.099 3.15625 12.2031C3.18229 12.3073 3.22135 12.4115 3.27344 12.5156C3.29948 12.5677 3.3125 12.6328 3.3125 12.7109C3.3125 12.763 3.29948 12.8021 3.27344 12.8281C3.22135 12.9583 3.16927 13.0755 3.11719 13.1797C3.09115 13.2839 3.07812 13.401 3.07812 13.5312C3.07812 13.7135 3.10417 13.8828 3.15625 14.0391C3.23438 14.1953 3.32552 14.3385 3.42969 14.4688C3.53385 14.599 3.65104 14.7031 3.78125 14.7812C3.9375 14.8333 4.10677 14.8594 4.28906 14.8594C4.65365 14.8594 4.9401 14.8203 5.14844 14.7422C5.38281 14.6641 5.55208 14.5599 5.65625 14.4297C5.76042 14.3255 5.82552 14.1953 5.85156 14.0391C5.90365 13.8568 5.92969 13.6875 5.92969 13.5312V11.5781C5.92969 11.5 5.95573 11.4349 6.00781 11.3828C6.08594 11.3047 6.16406 11.2656 6.24219 11.2656C6.34635 11.2656 6.42448 11.3047 6.47656 11.3828C6.55469 11.4349 6.59375 11.5 6.59375 11.5781V13.5312C6.59375 13.7396 6.56771 13.9609 6.51562 14.1953C6.46354 14.4297 6.35938 14.638 6.20312 14.8203C6.04688 15.0286 5.8125 15.1979 5.5 15.3281C5.21354 15.4583 4.8099 15.5234 4.28906 15.5234Z"></path></svg>