<svg xmlns="http://www.w3.org/2000/svg" width="21" height="20" viewBox="0 0 21 20" fill="currentColor" stroke="currentColor" stroke-width="0.1" stroke-linecap="round" stroke-linejoin="round"><path d="M14.6797 18.9219C14.5755 18.9219 14.4583 18.9219 14.3281 18.9219C14.224 18.8958 14.1198 18.8698 14.0156 18.8438C13.8854 18.8177 13.7682 18.7786 13.6641 18.7266C13.5599 18.6745 13.4427 18.6224 13.3125 18.5703C13.0781 18.4401 12.8568 18.2839 12.6484 18.1016C12.4661 17.9193 12.3099 17.7109 12.1797 17.4766C12.0495 17.2422 11.9453 16.9948 11.8672 16.7344C11.8151 16.4479 11.7891 16.1484 11.7891 15.8359C11.7891 15.237 11.6458 14.6641 11.3594 14.1172C11.099 13.5703 10.7474 13.1016 10.3047 12.7109C9.86198 12.2943 9.32812 11.9688 8.70312 11.7344C8.10417 11.5 7.46615 11.3828 6.78906 11.3828H2.60938C2.47917 11.3828 2.33594 11.3698 2.17969 11.3438C2.04948 11.2917 1.91927 11.2396 1.78906 11.1875C1.63281 11.1094 1.48958 11.0182 1.35938 10.9141C1.25521 10.8099 1.15104 10.6927 1.04688 10.5625C0.942708 10.4583 0.851562 10.3411 0.773438 10.2109C0.721354 10.0547 0.682292 9.91146 0.65625 9.78125C0.604167 9.625 0.578125 9.46875 0.578125 9.3125C0.578125 9.15625 0.591146 9 0.617188 8.84375C0.851562 7.77604 1.26823 6.79948 1.86719 5.91406C2.46615 5.0026 3.19531 4.22135 4.05469 3.57031C4.88802 2.94531 5.85156 2.46354 6.94531 2.125C8.03906 1.76042 9.19792 1.57812 10.4219 1.57812C11.8021 1.57812 13.0911 1.82552 14.2891 2.32031C15.513 2.8151 16.5807 3.47917 17.4922 4.3125C18.4036 5.14583 19.1198 6.13542 19.6406 7.28125C20.1615 8.40104 20.4219 9.61198 20.4219 10.9141C20.4219 11.6432 20.3307 12.3594 20.1484 13.0625C19.9661 13.7656 19.7057 14.4297 19.3672 15.0547C19.0286 15.6797 18.612 16.2786 18.1172 16.8516C17.6224 17.3984 17.0625 17.8932 16.4375 18.3359C16.2812 18.4401 16.138 18.5312 16.0078 18.6094C15.8776 18.6615 15.7344 18.7135 15.5781 18.7656C15.4479 18.8177 15.3047 18.8568 15.1484 18.8828C14.9922 18.9089 14.8359 18.9219 14.6797 18.9219ZM10.4219 2.24219C9.27604 2.24219 8.19531 2.41146 7.17969 2.75C6.16406 3.0625 5.2526 3.51823 4.44531 4.11719C3.66406 4.71615 2.98698 5.43229 2.41406 6.26562C1.86719 7.07292 1.48958 7.98438 1.28125 9C1.22917 9.20833 1.22917 9.41667 1.28125 9.625C1.33333 9.83333 1.42448 10.0156 1.55469 10.1719C1.71094 10.3281 1.88021 10.4583 2.0625 10.5625C2.24479 10.6667 2.42708 10.7188 2.60938 10.7188H6.78906C7.57031 10.7188 8.29948 10.862 8.97656 11.1484C9.65365 11.4089 10.2526 11.7734 10.7734 12.2422C11.2943 12.7109 11.6979 13.2578 11.9844 13.8828C12.2969 14.4818 12.4531 15.1328 12.4531 15.8359C12.4531 16.0703 12.4792 16.3047 12.5312 16.5391C12.5833 16.7474 12.6615 16.9427 12.7656 17.125C12.8698 17.3073 12.987 17.4766 13.1172 17.6328C13.2734 17.763 13.4427 17.8802 13.625 17.9844C13.8333 18.0885 14.0417 18.1667 14.25 18.2188C14.4583 18.2448 14.6667 18.2578 14.875 18.2578C15.0573 18.2318 15.2526 18.1797 15.4609 18.1016C15.6693 18.0234 15.8646 17.9193 16.0469 17.7891C16.6198 17.3724 17.1406 16.9167 17.6094 16.4219C18.0781 15.901 18.4688 15.3411 18.7812 14.7422C19.0938 14.1693 19.3281 13.5573 19.4844 12.9062C19.6667 12.2552 19.7578 11.5911 19.7578 10.9141C19.7578 9.71615 19.5104 8.59635 19.0156 7.55469C18.5208 6.48698 17.8568 5.5625 17.0234 4.78125C16.1641 4 15.1615 3.38802 14.0156 2.94531C12.8958 2.47656 11.6979 2.24219 10.4219 2.24219ZM12.4531 17.3984H8.50781C8.16927 17.3984 7.83073 17.2943 7.49219 17.0859C7.15365 16.8776 6.86719 16.6172 6.63281 16.3047C6.3724 15.9922 6.16406 15.6406 6.00781 15.25C5.85156 14.8594 5.77344 14.4948 5.77344 14.1562V11.3828H6.4375V14.1562C6.4375 14.4167 6.5026 14.7031 6.63281 15.0156C6.76302 15.3021 6.91927 15.5755 7.10156 15.8359C7.3099 16.0964 7.53125 16.3177 7.76562 16.5C8 16.6562 8.2474 16.7344 8.50781 16.7344H12.4531V17.3984ZM3.89844 18.9219C3.84635 18.9219 3.79427 18.9089 3.74219 18.8828C3.71615 18.8568 3.6901 18.8307 3.66406 18.8047C3.58594 18.7266 3.54688 18.6484 3.54688 18.5703C3.54688 18.4661 3.58594 18.388 3.66406 18.3359L6.51562 15.6797C6.56771 15.6276 6.63281 15.6016 6.71094 15.6016C6.8151 15.6016 6.90625 15.6406 6.98438 15.7188C7.03646 15.7708 7.0625 15.849 7.0625 15.9531C7.0625 16.0312 7.02344 16.1094 6.94531 16.1875L4.13281 18.8047C4.08073 18.8568 4.02865 18.8958 3.97656 18.9219C3.95052 18.9219 3.92448 18.9219 3.89844 18.9219ZM5.77344 7.39844H4.44531C4.34115 7.39844 4.25 7.3724 4.17188 7.32031C4.11979 7.24219 4.09375 7.15104 4.09375 7.04688C4.09375 6.96875 4.11979 6.90365 4.17188 6.85156C4.25 6.77344 4.34115 6.73438 4.44531 6.73438H5.77344C5.8776 6.73438 5.95573 6.77344 6.00781 6.85156C6.08594 6.90365 6.125 6.96875 6.125 7.04688C6.125 7.15104 6.08594 7.24219 6.00781 7.32031C5.95573 7.3724 5.8776 7.39844 5.77344 7.39844ZM4.44531 8.72656H3.78125C3.67708 8.72656 3.58594 8.70052 3.50781 8.64844C3.45573 8.57031 3.42969 8.47917 3.42969 8.375C3.42969 8.29688 3.45573 8.23177 3.50781 8.17969C3.58594 8.10156 3.67708 8.0625 3.78125 8.0625H4.44531C4.54948 8.0625 4.6276 8.10156 4.67969 8.17969C4.75781 8.23177 4.79688 8.29688 4.79688 8.375C4.79688 8.47917 4.75781 8.57031 4.67969 8.64844C4.6276 8.70052 4.54948 8.72656 4.44531 8.72656ZM17.7656 12.0469H17.1016C17.0234 12.0469 16.9453 12.0208 16.8672 11.9688C16.8151 11.8906 16.7891 11.8125 16.7891 11.7344C16.7891 11.6302 16.8151 11.5521 16.8672 11.5C16.9453 11.4219 17.0234 11.3828 17.1016 11.3828H17.7656C17.8698 11.3828 17.9479 11.4219 18 11.5C18.0781 11.5521 18.1172 11.6302 18.1172 11.7344C18.1172 11.8125 18.0781 11.8906 18 11.9688C17.9479 12.0208 17.8698 12.0469 17.7656 12.0469ZM17.1016 14.0391H16.4375C16.3594 14.0391 16.2812 14.013 16.2031 13.9609C16.151 13.8828 16.125 13.8047 16.125 13.7266C16.125 13.6224 16.151 13.5443 16.2031 13.4922C16.2812 13.4141 16.3594 13.375 16.4375 13.375H17.1016C17.2057 13.375 17.2839 13.4141 17.3359 13.4922C17.4141 13.5443 17.4531 13.6224 17.4531 13.7266C17.4531 13.8047 17.4141 13.8828 17.3359 13.9609C17.2839 14.013 17.2057 14.0391 17.1016 14.0391ZM15.5 6.8125C15.474 6.8125 15.4349 6.8125 15.3828 6.8125C15.3307 6.78646 15.2917 6.7474 15.2656 6.69531C15.2135 6.64323 15.1875 6.57812 15.1875 6.5C15.1875 6.39583 15.2135 6.30469 15.2656 6.22656L16.125 5.44531C16.1771 5.36719 16.2422 5.32812 16.3203 5.32812C16.4245 5.32812 16.5156 5.36719 16.5938 5.44531C16.6458 5.4974 16.6719 5.57552 16.6719 5.67969C16.6719 5.75781 16.6458 5.83594 16.5938 5.91406L15.7344 6.73438C15.7083 6.76042 15.6693 6.78646 15.6172 6.8125C15.5911 6.8125 15.5521 6.8125 15.5 6.8125ZM13.8594 5.13281C13.8073 5.13281 13.7552 5.13281 13.7031 5.13281C13.6771 5.10677 13.651 5.08073 13.625 5.05469C13.5469 4.97656 13.5078 4.89844 13.5078 4.82031C13.5078 4.71615 13.5469 4.63802 13.625 4.58594L14.4453 3.76562C14.5234 3.71354 14.6016 3.6875 14.6797 3.6875C14.7839 3.6875 14.862 3.71354 14.9141 3.76562C14.9922 3.84375 15.0182 3.9349 14.9922 4.03906C14.9922 4.11719 14.9661 4.18229 14.9141 4.23438L14.0938 5.05469C14.0417 5.08073 13.9896 5.10677 13.9375 5.13281C13.9115 5.13281 13.8854 5.13281 13.8594 5.13281Z"></path></svg>