            <svg xmlns="http://www.w3.org/2000/svg" width="21" height="21" viewBox="0 0 21 21" fill="currentColor"
              stroke="currentColor" stroke-width="0.1" stroke-linecap="round" stroke-linejoin="round">
              <path
                d="M10.2656 19.625C9.01562 19.625 7.81771 19.3125 6.67188 18.6875C5.55208 18.0625 4.57552 17.2812 3.74219 16.3438C2.90885 15.4062 2.24479 14.4036 1.75 13.3359C1.25521 12.2422 1.00781 11.2526 1.00781 10.3672C1.00781 10.2891 1.03385 10.224 1.08594 10.1719C1.16406 10.0938 1.24219 10.0547 1.32031 10.0547H19.1719C19.276 10.0547 19.3542 10.0938 19.4062 10.1719C19.4844 10.224 19.5234 10.2891 19.5234 10.3672C19.5234 11.2526 19.276 12.2422 18.7812 13.3359C18.2865 14.4036 17.6094 15.4062 16.75 16.3438C15.9167 17.2812 14.9401 18.0625 13.8203 18.6875C12.7005 19.3125 11.5156 19.625 10.2656 19.625ZM1.67188 10.7188C1.75 11.5521 2.02344 12.4505 2.49219 13.4141C2.96094 14.3776 3.58594 15.263 4.36719 16.0703C5.14844 16.9036 6.04688 17.5938 7.0625 18.1406C8.07812 18.6875 9.14583 18.9609 10.2656 18.9609C11.3854 18.9609 12.4531 18.6875 13.4688 18.1406C14.4844 17.5938 15.3698 16.9036 16.125 16.0703C16.9062 15.263 17.5312 14.3776 18 13.4141C18.4948 12.4505 18.7682 11.5521 18.8203 10.7188H1.67188ZM13 20.0547H7.02344C6.91927 20.0547 6.82812 20.0156 6.75 19.9375C6.69792 19.8854 6.67188 19.8073 6.67188 19.7031C6.67188 19.625 6.69792 19.5469 6.75 19.4688C6.82812 19.4167 6.91927 19.3906 7.02344 19.3906H13C13.1042 19.3906 13.1823 19.4167 13.2344 19.4688C13.3125 19.5469 13.3516 19.625 13.3516 19.7031C13.3516 19.8073 13.3125 19.8854 13.2344 19.9375C13.1823 20.0156 13.1042 20.0547 13 20.0547ZM10.8516 9.58594C10.7995 9.58594 10.7474 9.57292 10.6953 9.54688C10.6693 9.52083 10.6302 9.49479 10.5781 9.46875C10.526 9.39062 10.5 9.3125 10.5 9.23438C10.5 9.13021 10.5391 9.05208 10.6172 9L19.4453 0.5625C19.4974 0.484375 19.5625 0.445312 19.6406 0.445312C19.7448 0.445312 19.8359 0.484375 19.9141 0.5625C19.9661 0.640625 19.9922 0.731771 19.9922 0.835938C19.9922 0.914062 19.9661 0.979167 19.9141 1.03125L11.0859 9.46875C11.0339 9.49479 10.9818 9.52083 10.9297 9.54688C10.9036 9.57292 10.8776 9.58594 10.8516 9.58594ZM7.88281 6.61719C7.85677 6.61719 7.81771 6.61719 7.76562 6.61719C7.73958 6.59115 7.70052 6.5651 7.64844 6.53906C7.59635 6.46094 7.57031 6.38281 7.57031 6.30469C7.57031 6.20052 7.59635 6.1224 7.64844 6.07031L12.7656 0.5625C12.8177 0.484375 12.8828 0.445312 12.9609 0.445312C13.0651 0.445312 13.1562 0.484375 13.2344 0.5625C13.2865 0.614583 13.3125 0.692708 13.3125 0.796875C13.3385 0.875 13.3125 0.953125 13.2344 1.03125L8.11719 6.5C8.09115 6.55208 8.05208 6.59115 8 6.61719C7.97396 6.61719 7.9349 6.61719 7.88281 6.61719ZM9.95312 8.29688C9.79688 8.29688 9.65365 8.27083 9.52344 8.21875C9.39323 8.14062 9.26302 8.04948 9.13281 7.94531C9.02865 7.84115 8.95052 7.72396 8.89844 7.59375C8.84635 7.4375 8.82031 7.28125 8.82031 7.125C8.82031 6.96875 8.84635 6.82552 8.89844 6.69531C8.95052 6.53906 9.02865 6.40885 9.13281 6.30469C9.26302 6.17448 9.39323 6.08333 9.52344 6.03125C9.67969 5.97917 9.82292 5.95312 9.95312 5.95312C10.1094 5.95312 10.2526 5.97917 10.3828 6.03125C10.5391 6.08333 10.6823 6.17448 10.8125 6.30469C10.9167 6.40885 10.9948 6.53906 11.0469 6.69531C11.099 6.82552 11.125 6.96875 11.125 7.125C11.125 7.28125 11.099 7.4375 11.0469 7.59375C10.9948 7.72396 10.9167 7.84115 10.8125 7.94531C10.6823 8.04948 10.5391 8.14062 10.3828 8.21875C10.2526 8.27083 10.1094 8.29688 9.95312 8.29688ZM9.95312 6.61719C9.90104 6.61719 9.83594 6.63021 9.75781 6.65625C9.70573 6.68229 9.65365 6.72135 9.60156 6.77344C9.57552 6.82552 9.54948 6.8776 9.52344 6.92969C9.4974 6.98177 9.48438 7.04688 9.48438 7.125C9.48438 7.17708 9.4974 7.24219 9.52344 7.32031C9.54948 7.3724 9.57552 7.42448 9.60156 7.47656C9.70573 7.55469 9.82292 7.59375 9.95312 7.59375C10.1094 7.59375 10.2396 7.55469 10.3438 7.47656C10.3698 7.42448 10.3958 7.3724 10.4219 7.32031C10.4479 7.24219 10.4609 7.17708 10.4609 7.125C10.4609 7.04688 10.4479 6.98177 10.4219 6.92969C10.3958 6.8776 10.3698 6.82552 10.3438 6.77344C10.2917 6.72135 10.2266 6.68229 10.1484 6.65625C10.0964 6.63021 10.0312 6.61719 9.95312 6.61719Z">
              </path>
            </svg>