<svg xmlns="http://www.w3.org/2000/svg" width="21" height="21" viewBox="0 0 21 21" fill="currentColor" stroke="currentColor" stroke-width="0.1" stroke-linecap="round" stroke-linejoin="round"><path d="M11.125 7.59375C11.4896 7.59375 11.8281 7.65885 12.1406 7.78906C12.4792 7.91927 12.7656 8.11458 13 8.375C13.2604 8.60938 13.4557 8.89583 13.5859 9.23438C13.7161 9.54688 13.7812 9.88542 13.7812 10.25C13.7812 10.6146 13.7161 10.9661 13.5859 11.3047C13.4557 11.6172 13.2604 11.8906 13 12.125C12.7656 12.3854 12.4792 12.5807 12.1406 12.7109C11.8281 12.8411 11.4896 12.9062 11.125 12.9062C10.7604 12.9062 10.4089 12.8411 10.0703 12.7109C9.75781 12.5807 9.48438 12.3854 9.25 12.125C9.01562 11.8906 8.82031 11.6172 8.66406 11.3047C8.53385 10.9661 8.46875 10.6146 8.46875 10.25C8.46875 9.88542 8.53385 9.54688 8.66406 9.23438C8.82031 8.89583 9.01562 8.60938 9.25 8.375C9.48438 8.11458 9.75781 7.91927 10.0703 7.78906C10.4089 7.65885 10.7604 7.59375 11.125 7.59375ZM11.125 6.92969C10.6823 6.92969 10.2526 7.02083 9.83594 7.20312C9.41927 7.35938 9.06771 7.59375 8.78125 7.90625C8.46875 8.19271 8.22135 8.54427 8.03906 8.96094C7.88281 9.35156 7.80469 9.78125 7.80469 10.25C7.80469 10.7188 7.88281 11.1615 8.03906 11.5781C8.22135 11.9688 8.46875 12.3073 8.78125 12.5938C9.06771 12.9062 9.41927 13.1536 9.83594 13.3359C10.2526 13.4922 10.6823 13.5703 11.125 13.5703C11.5938 13.5703 12.0234 13.4922 12.4141 13.3359C12.8307 13.1536 13.1953 12.9062 13.5078 12.5938C13.7943 12.3073 14.0286 11.9688 14.2109 11.5781C14.3932 11.1615 14.4844 10.7188 14.4844 10.25C14.4844 9.78125 14.3932 9.35156 14.2109 8.96094C14.0286 8.54427 13.7943 8.19271 13.5078 7.90625C13.1953 7.59375 12.8307 7.35938 12.4141 7.20312C12.0234 7.02083 11.5938 6.92969 11.125 6.92969ZM11.125 0.914062C11.8281 0.914062 12.5182 0.992188 13.1953 1.14844C13.8724 1.30469 14.5104 1.52604 15.1094 1.8125C15.7344 2.09896 16.3073 2.45052 16.8281 2.86719C17.375 3.28385 17.8698 3.76562 18.3125 4.3125C18.2083 4.46875 18.1172 4.625 18.0391 4.78125C17.9609 4.9375 17.8958 5.09375 17.8438 5.25C17.7917 5.43229 17.7396 5.61458 17.6875 5.79688C17.6615 5.95312 17.6484 6.1224 17.6484 6.30469C17.6484 6.33073 17.6484 6.34375 17.6484 6.34375C17.4401 6.5 17.2448 6.68229 17.0625 6.89062C16.9062 7.09896 16.776 7.30729 16.6719 7.51562C16.5417 7.75 16.4375 7.9974 16.3594 8.25781C16.3073 8.51823 16.2812 8.77865 16.2812 9.03906C16.2812 9.40365 16.3333 9.75521 16.4375 10.0938C16.5677 10.4062 16.724 10.7057 16.9062 10.9922C17.0885 11.2526 17.3099 11.487 17.5703 11.6953C17.8568 11.9036 18.1562 12.0729 18.4688 12.2031C18.4427 12.3594 18.4167 12.5156 18.3906 12.6719C18.3646 12.8281 18.3516 12.9844 18.3516 13.1406C18.3516 13.3229 18.3646 13.5052 18.3906 13.6875C18.4167 13.8698 18.4557 14.0521 18.5078 14.2344C18.5859 14.3906 18.6641 14.5599 18.7422 14.7422C18.8203 14.8984 18.9245 15.0547 19.0547 15.2109C18.612 15.888 18.1042 16.5 17.5312 17.0469C16.9583 17.5677 16.3333 18.0234 15.6562 18.4141C14.9792 18.7786 14.25 19.0651 13.4688 19.2734C12.7135 19.4818 11.9323 19.5859 11.125 19.5859C9.84896 19.5859 8.63802 19.3385 7.49219 18.8438C6.3724 18.349 5.38281 17.6849 4.52344 16.8516C3.6901 15.9922 3.02604 15.0026 2.53125 13.8828C2.03646 12.737 1.78906 11.526 1.78906 10.25C1.78906 8.97396 2.03646 7.77604 2.53125 6.65625C3.02604 5.51042 3.6901 4.50781 4.52344 3.64844C5.38281 2.8151 6.3724 2.15104 7.49219 1.65625C8.63802 1.16146 9.84896 0.914062 11.125 0.914062ZM11.125 0.25C9.74479 0.25 8.44271 0.510417 7.21875 1.03125C6.02083 1.55208 4.96615 2.26823 4.05469 3.17969C3.14323 4.09115 2.42708 5.15885 1.90625 6.38281C1.38542 7.58073 1.125 8.86979 1.125 10.25C1.125 11.6302 1.38542 12.9323 1.90625 14.1562C2.42708 15.3542 3.14323 16.4089 4.05469 17.3203C4.96615 18.2318 6.02083 18.9479 7.21875 19.4688C8.44271 19.9896 9.74479 20.25 11.125 20.25C12.0625 20.25 12.9609 20.1198 13.8203 19.8594C14.7057 19.625 15.526 19.2865 16.2812 18.8438C17.0104 18.375 17.6745 17.8281 18.2734 17.2031C18.8984 16.5781 19.4323 15.888 19.875 15.1328C19.7448 15.0026 19.6276 14.8594 19.5234 14.7031C19.4193 14.5469 19.3281 14.3906 19.25 14.2344C19.1719 14.0781 19.1068 13.9089 19.0547 13.7266C19.0286 13.5182 19.0156 13.3229 19.0156 13.1406C19.0156 13.0104 19.0156 12.8932 19.0156 12.7891C19.0417 12.6589 19.0807 12.5286 19.1328 12.3984C19.1589 12.2943 19.1979 12.1901 19.25 12.0859C19.3021 11.9557 19.3542 11.8385 19.4062 11.7344C19.0677 11.7083 18.7422 11.6172 18.4297 11.4609C18.1432 11.3047 17.8958 11.1094 17.6875 10.875C17.4531 10.6406 17.2708 10.3672 17.1406 10.0547C17.0365 9.74219 16.9844 9.40365 16.9844 9.03906C16.9844 8.77865 17.0104 8.53125 17.0625 8.29688C17.1406 8.0625 17.2318 7.85417 17.3359 7.67188C17.4661 7.46354 17.6094 7.28125 17.7656 7.125C17.9479 6.94271 18.1432 6.79948 18.3516 6.69531C18.3516 6.61719 18.3385 6.55208 18.3125 6.5C18.3125 6.44792 18.3125 6.38281 18.3125 6.30469C18.3125 6.1224 18.3385 5.9401 18.3906 5.75781C18.4427 5.57552 18.4948 5.39323 18.5469 5.21094C18.625 5.05469 18.7161 4.91146 18.8203 4.78125C18.9245 4.625 19.0417 4.48177 19.1719 4.35156C18.7292 3.72656 18.2083 3.16667 17.6094 2.67188C17.0365 2.15104 16.4115 1.72135 15.7344 1.38281C15.0312 1.01823 14.2891 0.744792 13.5078 0.5625C12.7526 0.354167 11.9583 0.25 11.125 0.25Z"></path></svg>